# Tiled2Unity generated file. Do not modify by hand.
# Wavefront file for 'mapa_mesh_0002.obj'

# Vertices (Count = 796)
v -176 -48 0
v -192 -48 0
v -192 -32 0
v -176 -32 0
v -240 -80 0
v -256 -80 0
v -256 -64 0
v -240 -64 0
v -256 -80 0
v -272 -80 0
v -272 -64 0
v -256 -64 0
v -80 -96 0
v -96 -96 0
v -96 -80 0
v -80 -80 0
v -128 -96 0
v -144 -96 0
v -144 -80 0
v -128 -80 0
v -80 -112 0
v -96 -112 0
v -96 -96 0
v -80 -96 0
v -96 -112 0
v -112 -112 0
v -112 -96 0
v -96 -96 0
v -208 -112 0
v -224 -112 0
v -224 -96 0
v -208 -96 0
v -544 -112 0
v -560 -112 0
v -560 -96 0
v -544 -96 0
v -608 -112 0
v -624 -112 0
v -624 -96 0
v -608 -96 0
v -128 -128 0
v -144 -128 0
v -144 -112 0
v -128 -112 0
v -288 -128 0
v -304 -128 0
v -304 -112 0
v -288 -112 0
v -336 -128 0
v -352 -128 0
v -352 -112 0
v -336 -112 0
v -384 -128 0
v -400 -128 0
v -400 -112 0
v -384 -112 0
v -560 -128 0
v -576 -128 0
v -576 -112 0
v -560 -112 0
v -128 -144 0
v -144 -144 0
v -144 -128 0
v -128 -128 0
v -160 -144 0
v -176 -144 0
v -176 -128 0
v -160 -128 0
v -512 -144 0
v -528 -144 0
v -528 -128 0
v -512 -128 0
v -528 -144 0
v -544 -144 0
v -544 -128 0
v -528 -128 0
v -560 -144 0
v -576 -144 0
v -576 -128 0
v -560 -128 0
v -96 -160 0
v -112 -160 0
v -112 -144 0
v -96 -144 0
v -272 -160 0
v -288 -160 0
v -288 -144 0
v -272 -144 0
v -416 -160 0
v -432 -160 0
v -432 -144 0
v -416 -144 0
v -64 -176 0
v -80 -176 0
v -80 -160 0
v -64 -160 0
v -96 -176 0
v -112 -176 0
v -112 -160 0
v -96 -160 0
v -256 -176 0
v -272 -176 0
v -272 -160 0
v -256 -160 0
v -400 -176 0
v -416 -176 0
v -416 -160 0
v -400 -160 0
v -528 -176 0
v -544 -176 0
v -544 -160 0
v -528 -160 0
v -592 -176 0
v -608 -176 0
v -608 -160 0
v -592 -160 0
v -176 -192 0
v -192 -192 0
v -192 -176 0
v -176 -176 0
v -192 -192 0
v -208 -192 0
v -208 -176 0
v -192 -176 0
v -448 -192 0
v -464 -192 0
v -464 -176 0
v -448 -176 0
v -512 -192 0
v -528 -192 0
v -528 -176 0
v -512 -176 0
v -576 -192 0
v -592 -192 0
v -592 -176 0
v -576 -176 0
v -720 -192 0
v -736 -192 0
v -736 -176 0
v -720 -176 0
v -96 -208 0
v -112 -208 0
v -112 -192 0
v -96 -192 0
v -272 -208 0
v -288 -208 0
v -288 -192 0
v -272 -192 0
v -304 -208 0
v -320 -208 0
v -320 -192 0
v -304 -192 0
v -352 -208 0
v -368 -208 0
v -368 -192 0
v -352 -192 0
v -384 -208 0
v -400 -208 0
v -400 -192 0
v -384 -192 0
v -176 -224 0
v -192 -224 0
v -192 -208 0
v -176 -208 0
v -192 -224 0
v -208 -224 0
v -208 -208 0
v -192 -208 0
v -256 -224 0
v -272 -224 0
v -272 -208 0
v -256 -208 0
v -768 -224 0
v -784 -224 0
v -784 -208 0
v -768 -208 0
v -224 -240 0
v -240 -240 0
v -240 -224 0
v -224 -224 0
v -304 -240 0
v -320 -240 0
v -320 -224 0
v -304 -224 0
v -368 -240 0
v -384 -240 0
v -384 -224 0
v -368 -224 0
v -464 -240 0
v -480 -240 0
v -480 -224 0
v -464 -224 0
v -736 -240 0
v -752 -240 0
v -752 -224 0
v -736 -224 0
v -432 -256 0
v -448 -256 0
v -448 -240 0
v -432 -240 0
v -464 -256 0
v -480 -256 0
v -480 -240 0
v -464 -240 0
v -688 -256 0
v -704 -256 0
v -704 -240 0
v -688 -240 0
v -816 -256 0
v -832 -256 0
v -832 -240 0
v -816 -240 0
v -208 -272 0
v -224 -272 0
v -224 -256 0
v -208 -256 0
v -320 -272 0
v -336 -272 0
v -336 -256 0
v -320 -256 0
v -400 -272 0
v -416 -272 0
v -416 -256 0
v -400 -256 0
v -80 -288 0
v -96 -288 0
v -96 -272 0
v -80 -272 0
v -128 -288 0
v -144 -288 0
v -144 -272 0
v -128 -272 0
v -144 -288 0
v -160 -288 0
v -160 -272 0
v -144 -272 0
v -240 -304 0
v -256 -304 0
v -256 -288 0
v -240 -288 0
v -272 -304 0
v -288 -304 0
v -288 -288 0
v -272 -288 0
v -816 -304 0
v -832 -304 0
v -832 -288 0
v -816 -288 0
v -224 -320 0
v -240 -320 0
v -240 -304 0
v -224 -304 0
v -640 -320 0
v -656 -320 0
v -656 -304 0
v -640 -304 0
v -768 -320 0
v -784 -320 0
v -784 -304 0
v -768 -304 0
v -96 -336 0
v -112 -336 0
v -112 -320 0
v -96 -320 0
v -128 -336 0
v -144 -336 0
v -144 -320 0
v -128 -320 0
v -240 -336 0
v -256 -336 0
v -256 -320 0
v -240 -320 0
v -688 -336 0
v -704 -336 0
v -704 -320 0
v -688 -320 0
v -80 -352 0
v -96 -352 0
v -96 -336 0
v -80 -336 0
v -624 -352 0
v -640 -352 0
v -640 -336 0
v -624 -336 0
v -128 -368 0
v -144 -368 0
v -144 -352 0
v -128 -352 0
v -208 -368 0
v -224 -368 0
v -224 -352 0
v -208 -352 0
v -240 -368 0
v -256 -368 0
v -256 -352 0
v -240 -352 0
v -96 -384 0
v -112 -384 0
v -112 -368 0
v -96 -368 0
v -432 -384 0
v -448 -384 0
v -448 -368 0
v -432 -368 0
v -544 -384 0
v -560 -384 0
v -560 -368 0
v -544 -368 0
v -720 -384 0
v -736 -384 0
v -736 -368 0
v -720 -368 0
v -832 -384 0
v -848 -384 0
v -848 -368 0
v -832 -368 0
v -208 -400 0
v -224 -400 0
v -224 -384 0
v -208 -384 0
v -368 -400 0
v -384 -400 0
v -384 -384 0
v -368 -384 0
v -384 -400 0
v -400 -400 0
v -400 -384 0
v -384 -384 0
v -464 -400 0
v -480 -400 0
v -480 -384 0
v -464 -384 0
v -496 -400 0
v -512 -400 0
v -512 -384 0
v -496 -384 0
v -640 -400 0
v -656 -400 0
v -656 -384 0
v -640 -384 0
v -704 -400 0
v -720 -400 0
v -720 -384 0
v -704 -384 0
v -768 -400 0
v -784 -400 0
v -784 -384 0
v -768 -384 0
v -176 -416 0
v -192 -416 0
v -192 -400 0
v -176 -400 0
v -432 -416 0
v -448 -416 0
v -448 -400 0
v -432 -400 0
v -608 -416 0
v -624 -416 0
v -624 -400 0
v -608 -400 0
v -800 -416 0
v -816 -416 0
v -816 -400 0
v -800 -400 0
v -832 -416 0
v -848 -416 0
v -848 -400 0
v -832 -400 0
v -160 -432 0
v -176 -432 0
v -176 -416 0
v -160 -416 0
v -192 -432 0
v -208 -432 0
v -208 -416 0
v -192 -416 0
v -256 -432 0
v -272 -432 0
v -272 -416 0
v -256 -416 0
v -560 -432 0
v -576 -432 0
v -576 -416 0
v -560 -416 0
v -688 -432 0
v -704 -432 0
v -704 -416 0
v -688 -416 0
v -752 -432 0
v -768 -432 0
v -768 -416 0
v -752 -416 0
v -800 -432 0
v -816 -432 0
v -816 -416 0
v -800 -416 0
v -848 -432 0
v -864 -432 0
v -864 -416 0
v -848 -416 0
v -400 -464 0
v -416 -464 0
v -416 -448 0
v -400 -448 0
v -432 -464 0
v -448 -464 0
v -448 -448 0
v -432 -448 0
v -480 -464 0
v -496 -464 0
v -496 -448 0
v -480 -448 0
v -528 -464 0
v -544 -464 0
v -544 -448 0
v -528 -448 0
v -640 -464 0
v -656 -464 0
v -656 -448 0
v -640 -448 0
v -720 -464 0
v -736 -464 0
v -736 -448 0
v -720 -448 0
v -592 -480 0
v -608 -480 0
v -608 -464 0
v -592 -464 0
v -672 -480 0
v -688 -480 0
v -688 -464 0
v -672 -464 0
v -560 -496 0
v -576 -496 0
v -576 -480 0
v -560 -480 0
v -720 -496 0
v -736 -496 0
v -736 -480 0
v -720 -480 0
v -800 -496 0
v -816 -496 0
v -816 -480 0
v -800 -480 0
v -832 -496 0
v -848 -496 0
v -848 -480 0
v -832 -480 0
v -80 -512 0
v -96 -512 0
v -96 -496 0
v -80 -496 0
v -416 -512 0
v -432 -512 0
v -432 -496 0
v -416 -496 0
v -464 -512 0
v -480 -512 0
v -480 -496 0
v -464 -496 0
v -688 -512 0
v -704 -512 0
v -704 -496 0
v -688 -496 0
v -800 -512 0
v -816 -512 0
v -816 -496 0
v -800 -496 0
v -144 -528 0
v -160 -528 0
v -160 -512 0
v -144 -512 0
v -704 -528 0
v -720 -528 0
v -720 -512 0
v -704 -512 0
v -128 -544 0
v -144 -544 0
v -144 -528 0
v -128 -528 0
v -160 -544 0
v -176 -544 0
v -176 -528 0
v -160 -528 0
v -560 -544 0
v -576 -544 0
v -576 -528 0
v -560 -528 0
v -656 -560 0
v -672 -560 0
v -672 -544 0
v -656 -544 0
v -688 -560 0
v -704 -560 0
v -704 -544 0
v -688 -544 0
v -752 -560 0
v -768 -560 0
v -768 -544 0
v -752 -544 0
v -176 -576 0
v -192 -576 0
v -192 -560 0
v -176 -560 0
v -208 -576 0
v -224 -576 0
v -224 -560 0
v -208 -560 0
v -816 -576 0
v -832 -576 0
v -832 -560 0
v -816 -560 0
v -128 -592 0
v -144 -592 0
v -144 -576 0
v -128 -576 0
v -560 -592 0
v -576 -592 0
v -576 -576 0
v -560 -576 0
v -592 -592 0
v -608 -592 0
v -608 -576 0
v -592 -576 0
v -608 -592 0
v -624 -592 0
v -624 -576 0
v -608 -576 0
v -832 -592 0
v -848 -592 0
v -848 -576 0
v -832 -576 0
v -608 -608 0
v -624 -608 0
v -624 -592 0
v -608 -592 0
v -784 -608 0
v -800 -608 0
v -800 -592 0
v -784 -592 0
v -384 -624 0
v -400 -624 0
v -400 -608 0
v -384 -608 0
v -704 -624 0
v -720 -624 0
v -720 -608 0
v -704 -608 0
v -832 -624 0
v -848 -624 0
v -848 -608 0
v -832 -608 0
v -144 -640 0
v -160 -640 0
v -160 -624 0
v -144 -624 0
v -256 -640 0
v -272 -640 0
v -272 -624 0
v -256 -624 0
v -288 -640 0
v -304 -640 0
v -304 -624 0
v -288 -624 0
v -592 -640 0
v -608 -640 0
v -608 -624 0
v -592 -624 0
v -656 -640 0
v -672 -640 0
v -672 -624 0
v -656 -624 0
v -672 -640 0
v -688 -640 0
v -688 -624 0
v -672 -624 0
v -752 -640 0
v -768 -640 0
v -768 -624 0
v -752 -624 0
v -768 -640 0
v -784 -640 0
v -784 -624 0
v -768 -624 0
v -96 -656 0
v -112 -656 0
v -112 -640 0
v -96 -640 0
v -352 -656 0
v -368 -656 0
v -368 -640 0
v -352 -640 0
v -400 -656 0
v -416 -656 0
v -416 -640 0
v -400 -640 0
v -448 -656 0
v -464 -656 0
v -464 -640 0
v -448 -640 0
v -624 -656 0
v -640 -656 0
v -640 -640 0
v -624 -640 0
v -720 -656 0
v -736 -656 0
v -736 -640 0
v -720 -640 0
v -816 -672 0
v -832 -672 0
v -832 -656 0
v -816 -656 0
v -192 -688 0
v -208 -688 0
v -208 -672 0
v -192 -672 0
v -272 -688 0
v -288 -688 0
v -288 -672 0
v -272 -672 0
v -352 -688 0
v -368 -688 0
v -368 -672 0
v -352 -672 0
v -800 -688 0
v -816 -688 0
v -816 -672 0
v -800 -672 0
v -160 -704 0
v -176 -704 0
v -176 -688 0
v -160 -688 0
v -288 -704 0
v -304 -704 0
v -304 -688 0
v -288 -688 0
v -368 -704 0
v -384 -704 0
v -384 -688 0
v -368 -688 0
v -480 -704 0
v -496 -704 0
v -496 -688 0
v -480 -688 0
v -112 -720 0
v -128 -720 0
v -128 -704 0
v -112 -704 0
v -240 -720 0
v -256 -720 0
v -256 -704 0
v -240 -704 0
v -272 -720 0
v -288 -720 0
v -288 -704 0
v -272 -704 0
v -304 -720 0
v -320 -720 0
v -320 -704 0
v -304 -704 0
v -368 -720 0
v -384 -720 0
v -384 -704 0
v -368 -704 0
v -240 -752 0
v -256 -752 0
v -256 -736 0
v -240 -736 0
v -256 -752 0
v -272 -752 0
v -272 -736 0
v -256 -736 0
v -272 -752 0
v -288 -752 0
v -288 -736 0
v -272 -736 0
v -352 -752 0
v -368 -752 0
v -368 -736 0
v -352 -736 0
v -448 -752 0
v -464 -752 0
v -464 -736 0
v -448 -736 0
v -160 -768 0
v -176 -768 0
v -176 -752 0
v -160 -752 0
v -320 -768 0
v -336 -768 0
v -336 -752 0
v -320 -752 0
v -400 -768 0
v -416 -768 0
v -416 -752 0
v -400 -752 0
v -80 -784 0
v -96 -784 0
v -96 -768 0
v -80 -768 0
v -112 -784 0
v -128 -784 0
v -128 -768 0
v -112 -768 0
v -256 -784 0
v -272 -784 0
v -272 -768 0
v -256 -768 0
v -384 -784 0
v -400 -784 0
v -400 -768 0
v -384 -768 0
v -432 -784 0
v -448 -784 0
v -448 -768 0
v -432 -768 0
v -112 -800 0
v -128 -800 0
v -128 -784 0
v -112 -784 0
v -176 -800 0
v -192 -800 0
v -192 -784 0
v -176 -784 0
v -224 -800 0
v -240 -800 0
v -240 -784 0
v -224 -784 0
v -336 -800 0
v -352 -800 0
v -352 -784 0
v -336 -784 0
v -368 -800 0
v -384 -800 0
v -384 -784 0
v -368 -784 0
v -480 -800 0
v -496 -800 0
v -496 -784 0
v -480 -784 0
v -224 -816 0
v -240 -816 0
v -240 -800 0
v -224 -800 0
v -416 -816 0
v -432 -816 0
v -432 -800 0
v -416 -800 0
v -720 -816 0
v -736 -816 0
v -736 -800 0
v -720 -800 0
v -320 -832 0
v -336 -832 0
v -336 -816 0
v -320 -816 0
v -288 -848 0
v -304 -848 0
v -304 -832 0
v -288 -832 0
v -448 -848 0
v -464 -848 0
v -464 -832 0
v -448 -832 0
v -512 -848 0
v -528 -848 0
v -528 -832 0
v -512 -832 0
v -640 -848 0
v -656 -848 0
v -656 -832 0
v -640 -832 0
v -704 -848 0
v -720 -848 0
v -720 -832 0
v -704 -832 0
v -368 -864 0
v -384 -864 0
v -384 -848 0
v -368 -848 0
v -416 -864 0
v -432 -864 0
v -432 -848 0
v -416 -848 0
v -576 -864 0
v -592 -864 0
v -592 -848 0
v -576 -848 0
v -320 -880 0
v -336 -880 0
v -336 -864 0
v -320 -864 0
v -304 -912 0
v -320 -912 0
v -320 -896 0
v -304 -896 0

# Texture cooridinates (Count = 28)
vt 0.25 0.6666666
vt 0.2916667 0.6666666
vt 0.2916667 0.75
vt 0.25 0.75
vt 0.25 0.5
vt 0.2916667 0.5
vt 0.2916667 0.5833334
vt 0.25 0.5833334
vt 0.2916667 0.8333333
vt 0.25 0.8333333
vt 0.1666667 0.8333333
vt 0.2083333 0.8333333
vt 0.2083333 0.9166667
vt 0.1666667 0.9166667
vt 0.125 0.6666666
vt 0.1666667 0.6666666
vt 0.1666667 0.75
vt 0.125 0.75
vt 0.2916667 0.9166667
vt 0.25 0.9166667
vt 0.125 0.8333333
vt 0.2083333 0.75
vt 0.2083333 0.6666666
vt 0.2916667 1
vt 0.25 1
vt 0.125 0.5833334
vt 0.1666667 0.5833334
vt 0.125 0.9166667

# Normal
vn 0 0 -1

# Mesh description
g mapa_mesh_0002

# Faces
f 1/1/1 2/2/1 3/3/1 4/4/1
f 5/1/1 6/2/1 7/3/1 8/4/1
f 9/5/1 10/6/1 11/7/1 12/8/1
f 13/4/1 14/3/1 15/9/1 16/10/1
f 17/11/1 18/12/1 19/13/1 20/14/1
f 21/1/1 22/2/1 23/3/1 24/4/1
f 25/8/1 26/7/1 27/2/1 28/1/1
f 29/15/1 30/16/1 31/17/1 32/18/1
f 33/8/1 34/7/1 35/2/1 36/1/1
f 37/10/1 38/9/1 39/19/1 40/20/1
f 41/11/1 42/12/1 43/13/1 44/14/1
f 45/18/1 46/17/1 47/11/1 48/21/1
f 49/15/1 50/16/1 51/17/1 52/18/1
f 53/4/1 54/3/1 55/9/1 56/10/1
f 57/10/1 58/9/1 59/19/1 60/20/1
f 61/17/1 62/22/1 63/12/1 64/11/1
f 65/1/1 66/2/1 67/3/1 68/4/1
f 69/16/1 70/23/1 71/22/1 72/17/1
f 73/11/1 74/12/1 75/13/1 76/14/1
f 77/4/1 78/3/1 79/9/1 80/10/1
f 81/8/1 82/7/1 83/2/1 84/1/1
f 85/20/1 86/19/1 87/24/1 88/25/1
f 89/11/1 90/12/1 91/13/1 92/14/1
f 93/4/1 94/3/1 95/9/1 96/10/1
f 97/5/1 98/6/1 99/7/1 100/8/1
f 101/5/1 102/6/1 103/7/1 104/8/1
f 105/17/1 106/22/1 107/12/1 108/11/1
f 109/11/1 110/12/1 111/13/1 112/14/1
f 113/1/1 114/2/1 115/3/1 116/4/1
f 117/11/1 118/12/1 119/13/1 120/14/1
f 121/26/1 122/27/1 123/16/1 124/15/1
f 125/10/1 126/9/1 127/19/1 128/20/1
f 129/11/1 130/12/1 131/13/1 132/14/1
f 133/5/1 134/6/1 135/7/1 136/8/1
f 137/4/1 138/3/1 139/9/1 140/10/1
f 141/1/1 142/2/1 143/3/1 144/4/1
f 145/8/1 146/7/1 147/2/1 148/1/1
f 149/20/1 150/19/1 151/24/1 152/25/1
f 153/1/1 154/2/1 155/3/1 156/4/1
f 157/20/1 158/19/1 159/24/1 160/25/1
f 161/20/1 162/19/1 163/24/1 164/25/1
f 165/1/1 166/2/1 167/3/1 168/4/1
f 169/8/1 170/7/1 171/2/1 172/1/1
f 173/1/1 174/2/1 175/3/1 176/4/1
f 177/21/1 178/11/1 179/14/1 180/28/1
f 181/1/1 182/2/1 183/3/1 184/4/1
f 185/10/1 186/9/1 187/19/1 188/20/1
f 189/21/1 190/11/1 191/14/1 192/28/1
f 193/8/1 194/7/1 195/2/1 196/1/1
f 197/5/1 198/6/1 199/7/1 200/8/1
f 201/21/1 202/11/1 203/14/1 204/28/1
f 205/8/1 206/7/1 207/2/1 208/1/1
f 209/5/1 210/6/1 211/7/1 212/8/1
f 213/11/1 214/12/1 215/13/1 216/14/1
f 217/8/1 218/7/1 219/2/1 220/1/1
f 221/20/1 222/19/1 223/24/1 224/25/1
f 225/8/1 226/7/1 227/2/1 228/1/1
f 229/15/1 230/16/1 231/17/1 232/18/1
f 233/21/1 234/11/1 235/14/1 236/28/1
f 237/5/1 238/6/1 239/7/1 240/8/1
f 241/8/1 242/7/1 243/2/1 244/1/1
f 245/10/1 246/9/1 247/19/1 248/20/1
f 249/8/1 250/7/1 251/2/1 252/1/1
f 253/8/1 254/7/1 255/2/1 256/1/1
f 257/26/1 258/27/1 259/16/1 260/15/1
f 261/20/1 262/19/1 263/24/1 264/25/1
f 265/17/1 266/22/1 267/12/1 268/11/1
f 269/10/1 270/9/1 271/19/1 272/20/1
f 273/15/1 274/16/1 275/17/1 276/18/1
f 277/8/1 278/7/1 279/2/1 280/1/1
f 281/10/1 282/9/1 283/19/1 284/20/1
f 285/21/1 286/11/1 287/14/1 288/28/1
f 289/20/1 290/19/1 291/24/1 292/25/1
f 293/4/1 294/3/1 295/9/1 296/10/1
f 297/4/1 298/3/1 299/9/1 300/10/1
f 301/1/1 302/2/1 303/3/1 304/4/1
f 305/8/1 306/7/1 307/2/1 308/1/1
f 309/5/1 310/6/1 311/7/1 312/8/1
f 313/10/1 314/9/1 315/19/1 316/20/1
f 317/1/1 318/2/1 319/3/1 320/4/1
f 321/1/1 322/2/1 323/3/1 324/4/1
f 325/8/1 326/7/1 327/2/1 328/1/1
f 329/11/1 330/12/1 331/13/1 332/14/1
f 333/5/1 334/6/1 335/7/1 336/8/1
f 337/16/1 338/23/1 339/22/1 340/17/1
f 341/1/1 342/2/1 343/3/1 344/4/1
f 345/4/1 346/3/1 347/9/1 348/10/1
f 349/20/1 350/19/1 351/24/1 352/25/1
f 353/4/1 354/3/1 355/9/1 356/10/1
f 357/18/1 358/17/1 359/11/1 360/21/1
f 361/16/1 362/23/1 363/22/1 364/17/1
f 365/10/1 366/9/1 367/19/1 368/20/1
f 369/10/1 370/9/1 371/19/1 372/20/1
f 373/1/1 374/2/1 375/3/1 376/4/1
f 377/1/1 378/2/1 379/3/1 380/4/1
f 381/18/1 382/17/1 383/11/1 384/21/1
f 385/8/1 386/7/1 387/2/1 388/1/1
f 389/4/1 390/3/1 391/9/1 392/10/1
f 393/15/1 394/16/1 395/17/1 396/18/1
f 397/20/1 398/19/1 399/24/1 400/25/1
f 401/1/1 402/2/1 403/3/1 404/4/1
f 405/8/1 406/7/1 407/2/1 408/1/1
f 409/26/1 410/27/1 411/16/1 412/15/1
f 413/21/1 414/11/1 415/14/1 416/28/1
f 417/4/1 418/3/1 419/9/1 420/10/1
f 421/20/1 422/19/1 423/24/1 424/25/1
f 425/8/1 426/7/1 427/2/1 428/1/1
f 429/1/1 430/2/1 431/3/1 432/4/1
f 433/1/1 434/2/1 435/3/1 436/4/1
f 437/1/1 438/2/1 439/3/1 440/4/1
f 441/18/1 442/17/1 443/11/1 444/21/1
f 445/10/1 446/9/1 447/19/1 448/20/1
f 449/5/1 450/6/1 451/7/1 452/8/1
f 453/1/1 454/2/1 455/3/1 456/4/1
f 457/1/1 458/2/1 459/3/1 460/4/1
f 461/4/1 462/3/1 463/9/1 464/10/1
f 465/18/1 466/17/1 467/11/1 468/21/1
f 469/10/1 470/9/1 471/19/1 472/20/1
f 473/10/1 474/9/1 475/19/1 476/20/1
f 477/5/1 478/6/1 479/7/1 480/8/1
f 481/10/1 482/9/1 483/19/1 484/20/1
f 485/5/1 486/6/1 487/7/1 488/8/1
f 489/18/1 490/17/1 491/11/1 492/21/1
f 493/17/1 494/22/1 495/12/1 496/11/1
f 497/16/1 498/23/1 499/22/1 500/17/1
f 501/20/1 502/19/1 503/24/1 504/25/1
f 505/20/1 506/19/1 507/24/1 508/25/1
f 509/20/1 510/19/1 511/24/1 512/25/1
f 513/1/1 514/2/1 515/3/1 516/4/1
f 517/20/1 518/19/1 519/24/1 520/25/1
f 521/16/1 522/23/1 523/22/1 524/17/1
f 525/21/1 526/11/1 527/14/1 528/28/1
f 529/8/1 530/7/1 531/2/1 532/1/1
f 533/26/1 534/27/1 535/16/1 536/15/1
f 537/4/1 538/3/1 539/9/1 540/10/1
f 541/10/1 542/9/1 543/19/1 544/20/1
f 545/1/1 546/2/1 547/3/1 548/4/1
f 549/20/1 550/19/1 551/24/1 552/25/1
f 553/20/1 554/19/1 555/24/1 556/25/1
f 557/11/1 558/12/1 559/13/1 560/14/1
f 561/15/1 562/16/1 563/17/1 564/18/1
f 565/4/1 566/3/1 567/9/1 568/10/1
f 569/26/1 570/27/1 571/16/1 572/15/1
f 573/11/1 574/12/1 575/13/1 576/14/1
f 577/10/1 578/9/1 579/19/1 580/20/1
f 581/20/1 582/19/1 583/24/1 584/25/1
f 585/8/1 586/7/1 587/2/1 588/1/1
f 589/20/1 590/19/1 591/24/1 592/25/1
f 593/4/1 594/3/1 595/9/1 596/10/1
f 597/8/1 598/7/1 599/2/1 600/1/1
f 601/4/1 602/3/1 603/9/1 604/10/1
f 605/15/1 606/16/1 607/17/1 608/18/1
f 609/20/1 610/19/1 611/24/1 612/25/1
f 613/16/1 614/23/1 615/22/1 616/17/1
f 617/8/1 618/7/1 619/2/1 620/1/1
f 621/17/1 622/22/1 623/12/1 624/11/1
f 625/1/1 626/2/1 627/3/1 628/4/1
f 629/15/1 630/16/1 631/17/1 632/18/1
f 633/4/1 634/3/1 635/9/1 636/10/1
f 637/15/1 638/16/1 639/17/1 640/18/1
f 641/4/1 642/3/1 643/9/1 644/10/1
f 645/5/1 646/6/1 647/7/1 648/8/1
f 649/8/1 650/7/1 651/2/1 652/1/1
f 653/1/1 654/2/1 655/3/1 656/4/1
f 657/5/1 658/6/1 659/7/1 660/8/1
f 661/21/1 662/11/1 663/14/1 664/28/1
f 665/11/1 666/12/1 667/13/1 668/14/1
f 669/16/1 670/23/1 671/22/1 672/17/1
f 673/26/1 674/27/1 675/16/1 676/15/1
f 677/1/1 678/2/1 679/3/1 680/4/1
f 681/21/1 682/11/1 683/14/1 684/28/1
f 685/15/1 686/16/1 687/17/1 688/18/1
f 689/26/1 690/27/1 691/16/1 692/15/1
f 693/8/1 694/7/1 695/2/1 696/1/1
f 697/10/1 698/9/1 699/19/1 700/20/1
f 701/5/1 702/6/1 703/7/1 704/8/1
f 705/4/1 706/3/1 707/9/1 708/10/1
f 709/8/1 710/7/1 711/2/1 712/1/1
f 713/26/1 714/27/1 715/16/1 716/15/1
f 717/1/1 718/2/1 719/3/1 720/4/1
f 721/4/1 722/3/1 723/9/1 724/10/1
f 725/1/1 726/2/1 727/3/1 728/4/1
f 729/11/1 730/12/1 731/13/1 732/14/1
f 733/20/1 734/19/1 735/24/1 736/25/1
f 737/8/1 738/7/1 739/2/1 740/1/1
f 741/20/1 742/19/1 743/24/1 744/25/1
f 745/15/1 746/16/1 747/17/1 748/18/1
f 749/21/1 750/11/1 751/14/1 752/28/1
f 753/18/1 754/17/1 755/11/1 756/21/1
f 757/26/1 758/27/1 759/16/1 760/15/1
f 761/18/1 762/17/1 763/11/1 764/21/1
f 765/21/1 766/11/1 767/14/1 768/28/1
f 769/11/1 770/12/1 771/13/1 772/14/1
f 773/15/1 774/16/1 775/17/1 776/18/1
f 777/20/1 778/19/1 779/24/1 780/25/1
f 781/8/1 782/7/1 783/2/1 784/1/1
f 785/16/1 786/23/1 787/22/1 788/17/1
f 789/10/1 790/9/1 791/19/1 792/20/1
f 793/10/1 794/9/1 795/19/1 796/20/1

