# Tiled2Unity generated file. Do not modify by hand.
# Wavefront file for 'mapa_mesh_0006.obj'

# Vertices (Count = 20)
v -752 -288 0
v -768 -288 0
v -768 -272 0
v -752 -272 0
v -176 -352 0
v -192 -352 0
v -192 -336 0
v -176 -336 0
v -464 -352 0
v -480 -352 0
v -480 -336 0
v -464 -336 0
v -352 -672 0
v -368 -672 0
v -368 -656 0
v -352 -656 0
v -720 -784 0
v -736 -784 0
v -736 -768 0
v -720 -768 0

# Texture cooridinates (Count = 16)
vt 0 0.375
vt 0.0625 0.375
vt 0.0625 0.5
vt 0 0.5
vt 0.5 0.375
vt 0.5625 0.375
vt 0.5625 0.5
vt 0.5 0.5
vt 0.5 0.875
vt 0.5625 0.875
vt 0.5625 1
vt 0.5 1
vt 0.25 0.875
vt 0.3125 0.875
vt 0.3125 1
vt 0.25 1

# Normal
vn 0 0 -1

# Mesh description
g mapa_mesh_0006

# Faces
f 1/1/1 2/2/1 3/3/1 4/4/1
f 5/5/1 6/6/1 7/7/1 8/8/1
f 9/9/1 10/10/1 11/11/1 12/12/1
f 13/13/1 14/14/1 15/15/1 16/16/1
f 17/9/1 18/10/1 19/11/1 20/12/1

