# Tiled2Unity generated file. Do not modify by hand.
# Wavefront file for 'mapa_mesh_0004.obj'

# Vertices (Count = 516)
v -144 -48 0
v -160 -48 0
v -160 -32 0
v -144 -32 0
v -160 -48 0
v -176 -48 0
v -176 -32 0
v -160 -32 0
v -128 -64 0
v -144 -64 0
v -144 -48 0
v -128 -48 0
v -144 -64 0
v -160 -64 0
v -160 -48 0
v -144 -48 0
v -160 -64 0
v -176 -64 0
v -176 -48 0
v -160 -48 0
v -336 -112 0
v -352 -112 0
v -352 -96 0
v -336 -96 0
v -464 -112 0
v -480 -112 0
v -480 -96 0
v -464 -96 0
v -464 -128 0
v -480 -128 0
v -480 -112 0
v -464 -112 0
v -480 -128 0
v -496 -128 0
v -496 -112 0
v -480 -112 0
v -240 -144 0
v -256 -144 0
v -256 -128 0
v -240 -128 0
v -256 -144 0
v -272 -144 0
v -272 -128 0
v -256 -128 0
v -240 -160 0
v -256 -160 0
v -256 -144 0
v -240 -144 0
v -256 -160 0
v -272 -160 0
v -272 -144 0
v -256 -144 0
v -464 -160 0
v -480 -160 0
v -480 -144 0
v -464 -144 0
v -560 -160 0
v -576 -160 0
v -576 -144 0
v -560 -144 0
v -464 -176 0
v -480 -176 0
v -480 -160 0
v -464 -160 0
v -560 -176 0
v -576 -176 0
v -576 -160 0
v -560 -160 0
v -112 -192 0
v -128 -192 0
v -128 -176 0
v -112 -176 0
v -128 -192 0
v -144 -192 0
v -144 -176 0
v -128 -176 0
v -368 -192 0
v -384 -192 0
v -384 -176 0
v -368 -176 0
v -384 -192 0
v -400 -192 0
v -400 -176 0
v -384 -176 0
v -544 -192 0
v -560 -192 0
v -560 -176 0
v -544 -176 0
v -112 -208 0
v -128 -208 0
v -128 -192 0
v -112 -192 0
v -128 -208 0
v -144 -208 0
v -144 -192 0
v -128 -192 0
v -544 -208 0
v -560 -208 0
v -560 -192 0
v -544 -192 0
v -528 -224 0
v -544 -224 0
v -544 -208 0
v -528 -208 0
v -160 -256 0
v -176 -256 0
v -176 -240 0
v -160 -240 0
v -112 -272 0
v -128 -272 0
v -128 -256 0
v -112 -256 0
v -128 -272 0
v -144 -272 0
v -144 -256 0
v -128 -256 0
v -160 -272 0
v -176 -272 0
v -176 -256 0
v -160 -256 0
v -496 -272 0
v -512 -272 0
v -512 -256 0
v -496 -256 0
v -96 -288 0
v -112 -288 0
v -112 -272 0
v -96 -272 0
v -208 -288 0
v -224 -288 0
v -224 -272 0
v -208 -272 0
v -224 -288 0
v -240 -288 0
v -240 -272 0
v -224 -272 0
v -688 -288 0
v -704 -288 0
v -704 -272 0
v -688 -272 0
v -704 -288 0
v -720 -288 0
v -720 -272 0
v -704 -272 0
v -160 -304 0
v -176 -304 0
v -176 -288 0
v -160 -288 0
v -176 -304 0
v -192 -304 0
v -192 -288 0
v -176 -288 0
v -208 -304 0
v -224 -304 0
v -224 -288 0
v -208 -288 0
v -224 -304 0
v -240 -304 0
v -240 -288 0
v -224 -288 0
v -688 -304 0
v -704 -304 0
v -704 -288 0
v -688 -288 0
v -704 -304 0
v -720 -304 0
v -720 -288 0
v -704 -288 0
v -160 -320 0
v -176 -320 0
v -176 -304 0
v -160 -304 0
v -768 -352 0
v -784 -352 0
v -784 -336 0
v -768 -336 0
v -784 -352 0
v -800 -352 0
v -800 -336 0
v -784 -336 0
v -112 -368 0
v -128 -368 0
v -128 -352 0
v -112 -352 0
v -480 -368 0
v -496 -368 0
v -496 -352 0
v -480 -352 0
v -496 -368 0
v -512 -368 0
v -512 -352 0
v -496 -352 0
v -592 -368 0
v -608 -368 0
v -608 -352 0
v -592 -352 0
v -608 -368 0
v -624 -368 0
v -624 -352 0
v -608 -352 0
v -768 -368 0
v -784 -368 0
v -784 -352 0
v -768 -352 0
v -784 -368 0
v -800 -368 0
v -800 -352 0
v -784 -352 0
v -112 -384 0
v -128 -384 0
v -128 -368 0
v -112 -368 0
v -160 -384 0
v -176 -384 0
v -176 -368 0
v -160 -368 0
v -176 -384 0
v -192 -384 0
v -192 -368 0
v -176 -368 0
v -432 -384 0
v -448 -384 0
v -448 -368 0
v -432 -368 0
v -480 -384 0
v -496 -384 0
v -496 -368 0
v -480 -368 0
v -496 -384 0
v -512 -384 0
v -512 -368 0
v -496 -368 0
v -592 -384 0
v -608 -384 0
v -608 -368 0
v -592 -368 0
v -608 -384 0
v -624 -384 0
v -624 -368 0
v -608 -368 0
v -672 -384 0
v -688 -384 0
v -688 -368 0
v -672 -368 0
v -432 -400 0
v -448 -400 0
v -448 -384 0
v -432 -384 0
v -480 -400 0
v -496 -400 0
v -496 -384 0
v -480 -384 0
v -496 -400 0
v -512 -400 0
v -512 -384 0
v -496 -384 0
v -544 -400 0
v -560 -400 0
v -560 -384 0
v -544 -384 0
v -560 -400 0
v -576 -400 0
v -576 -384 0
v -560 -384 0
v -480 -416 0
v -496 -416 0
v -496 -400 0
v -480 -400 0
v -496 -416 0
v -512 -416 0
v -512 -400 0
v -496 -400 0
v -208 -448 0
v -224 -448 0
v -224 -432 0
v -208 -432 0
v -208 -464 0
v -224 -464 0
v -224 -448 0
v -208 -448 0
v -464 -480 0
v -480 -480 0
v -480 -464 0
v -464 -464 0
v -480 -480 0
v -496 -480 0
v -496 -464 0
v -480 -464 0
v -576 -560 0
v -592 -560 0
v -592 -544 0
v -576 -544 0
v -576 -576 0
v -592 -576 0
v -592 -560 0
v -576 -560 0
v -720 -576 0
v -736 -576 0
v -736 -560 0
v -720 -560 0
v -672 -592 0
v -688 -592 0
v -688 -576 0
v -672 -576 0
v -688 -592 0
v -704 -592 0
v -704 -576 0
v -688 -576 0
v -704 -592 0
v -720 -592 0
v -720 -576 0
v -704 -576 0
v -720 -592 0
v -736 -592 0
v -736 -576 0
v -720 -576 0
v -176 -640 0
v -192 -640 0
v -192 -624 0
v -176 -624 0
v -192 -640 0
v -208 -640 0
v -208 -624 0
v -192 -624 0
v -176 -656 0
v -192 -656 0
v -192 -640 0
v -176 -640 0
v -192 -656 0
v -208 -656 0
v -208 -640 0
v -192 -640 0
v -656 -656 0
v -672 -656 0
v -672 -640 0
v -656 -640 0
v -672 -656 0
v -688 -656 0
v -688 -640 0
v -672 -640 0
v -688 -656 0
v -704 -656 0
v -704 -640 0
v -688 -640 0
v -656 -672 0
v -672 -672 0
v -672 -656 0
v -656 -656 0
v -672 -672 0
v -688 -672 0
v -688 -656 0
v -672 -656 0
v -688 -672 0
v -704 -672 0
v -704 -656 0
v -688 -656 0
v -128 -688 0
v -144 -688 0
v -144 -672 0
v -128 -672 0
v -304 -688 0
v -320 -688 0
v -320 -672 0
v -304 -672 0
v -400 -688 0
v -416 -688 0
v -416 -672 0
v -400 -672 0
v -416 -688 0
v -432 -688 0
v -432 -672 0
v -416 -672 0
v -128 -704 0
v -144 -704 0
v -144 -688 0
v -128 -688 0
v -224 -704 0
v -240 -704 0
v -240 -688 0
v -224 -688 0
v -224 -720 0
v -240 -720 0
v -240 -704 0
v -224 -704 0
v -464 -736 0
v -480 -736 0
v -480 -720 0
v -464 -720 0
v -80 -752 0
v -96 -752 0
v -96 -736 0
v -80 -736 0
v -96 -752 0
v -112 -752 0
v -112 -736 0
v -96 -736 0
v -336 -752 0
v -352 -752 0
v -352 -736 0
v -336 -736 0
v -352 -752 0
v -368 -752 0
v -368 -736 0
v -352 -736 0
v -80 -768 0
v -96 -768 0
v -96 -752 0
v -80 -752 0
v -96 -768 0
v -112 -768 0
v -112 -752 0
v -96 -752 0
v -256 -768 0
v -272 -768 0
v -272 -752 0
v -256 -752 0
v -272 -768 0
v -288 -768 0
v -288 -752 0
v -272 -752 0
v -288 -768 0
v -304 -768 0
v -304 -752 0
v -288 -752 0
v -336 -768 0
v -352 -768 0
v -352 -752 0
v -336 -752 0
v -352 -768 0
v -368 -768 0
v -368 -752 0
v -352 -752 0
v -288 -784 0
v -304 -784 0
v -304 -768 0
v -288 -768 0
v -304 -784 0
v -320 -784 0
v -320 -768 0
v -304 -768 0
v -304 -800 0
v -320 -800 0
v -320 -784 0
v -304 -784 0
v -656 -800 0
v -672 -800 0
v -672 -784 0
v -656 -784 0
v -736 -800 0
v -752 -800 0
v -752 -784 0
v -736 -784 0
v -656 -816 0
v -672 -816 0
v -672 -800 0
v -656 -800 0
v -736 -816 0
v -752 -816 0
v -752 -800 0
v -736 -800 0
v -256 -832 0
v -272 -832 0
v -272 -816 0
v -256 -816 0
v -272 -832 0
v -288 -832 0
v -288 -816 0
v -272 -816 0
v -528 -832 0
v -544 -832 0
v -544 -816 0
v -528 -816 0
v -544 -832 0
v -560 -832 0
v -560 -816 0
v -544 -816 0
v -256 -848 0
v -272 -848 0
v -272 -832 0
v -256 -832 0
v -272 -848 0
v -288 -848 0
v -288 -832 0
v -272 -832 0
v -448 -864 0
v -464 -864 0
v -464 -848 0
v -448 -848 0
v -624 -864 0
v -640 -864 0
v -640 -848 0
v -624 -848 0
v -640 -864 0
v -656 -864 0
v -656 -848 0
v -640 -848 0
v -256 -880 0
v -272 -880 0
v -272 -864 0
v -256 -864 0
v -624 -880 0
v -640 -880 0
v -640 -864 0
v -624 -864 0
v -640 -880 0
v -656 -880 0
v -656 -864 0
v -640 -864 0
v -256 -896 0
v -272 -896 0
v -272 -880 0
v -256 -880 0
v -288 -896 0
v -304 -896 0
v -304 -880 0
v -288 -880 0

# Texture cooridinates (Count = 32)
vt 0.8333333 0.6666666
vt 0.875 0.6666666
vt 0.875 0.75
vt 0.8333333 0.75
vt 0.9166667 0.6666666
vt 0.9166667 0.75
vt 0.875 0.8333333
vt 0.8333333 0.8333333
vt 0.8333333 0.5833334
vt 0.875 0.5833334
vt 0.9166667 0.5833334
vt 0.7916667 0.5833334
vt 0.7916667 0.6666666
vt 0.7916667 0.5
vt 0.8333333 0.5
vt 0.8333333 0.9166667
vt 0.875 0.9166667
vt 0.875 1
vt 0.8333333 1
vt 0.9166667 0.9166667
vt 0.9166667 1
vt 0.9166667 0.8333333
vt 0.7916667 0.9166667
vt 0.7916667 1
vt 0.7916667 0.8333333
vt 0.9583333 0.5833334
vt 0.9583333 0.6666666
vt 1 0.5833334
vt 1 0.6666666
vt 0.9583333 0.75
vt 1 0.75
vt 0.875 0.5

# Normal
vn 0 0 -1

# Mesh description
g mapa_mesh_0004

# Faces
f 1/1/1 2/2/1 3/3/1 4/4/1
f 5/2/1 6/5/1 7/6/1 8/3/1
f 9/4/1 10/3/1 11/7/1 12/8/1
f 13/9/1 14/10/1 15/2/1 16/1/1
f 17/10/1 18/11/1 19/5/1 20/2/1
f 21/4/1 22/3/1 23/7/1 24/8/1
f 25/12/1 26/9/1 27/1/1 28/13/1
f 29/14/1 30/15/1 31/9/1 32/12/1
f 33/4/1 34/3/1 35/7/1 36/8/1
f 37/16/1 38/17/1 39/18/1 40/19/1
f 41/17/1 42/20/1 43/21/1 44/18/1
f 45/8/1 46/7/1 47/17/1 48/16/1
f 49/7/1 50/22/1 51/20/1 52/17/1
f 53/23/1 54/16/1 55/19/1 56/24/1
f 57/23/1 58/16/1 59/19/1 60/24/1
f 61/25/1 62/8/1 63/16/1 64/23/1
f 65/25/1 66/8/1 67/16/1 68/23/1
f 69/1/1 70/2/1 71/3/1 72/4/1
f 73/2/1 74/5/1 75/6/1 76/3/1
f 77/11/1 78/26/1 79/27/1 80/5/1
f 81/26/1 82/28/1 83/29/1 84/27/1
f 85/12/1 86/9/1 87/1/1 88/13/1
f 89/9/1 90/10/1 91/2/1 92/1/1
f 93/10/1 94/11/1 95/5/1 96/2/1
f 97/14/1 98/15/1 99/9/1 100/12/1
f 101/3/1 102/6/1 103/22/1 104/7/1
f 105/12/1 106/9/1 107/1/1 108/13/1
f 109/5/1 110/27/1 111/30/1 112/6/1
f 113/27/1 114/29/1 115/31/1 116/30/1
f 117/14/1 118/15/1 119/9/1 120/12/1
f 121/4/1 122/3/1 123/7/1 124/8/1
f 125/4/1 126/3/1 127/7/1 128/8/1
f 129/1/1 130/2/1 131/3/1 132/4/1
f 133/2/1 134/5/1 135/6/1 136/3/1
f 137/12/1 138/9/1 139/1/1 140/13/1
f 141/12/1 142/9/1 143/1/1 144/13/1
f 145/12/1 146/9/1 147/1/1 148/13/1
f 149/15/1 150/32/1 151/10/1 152/9/1
f 153/9/1 154/10/1 155/2/1 156/1/1
f 157/10/1 158/11/1 159/5/1 160/2/1
f 161/14/1 162/15/1 163/9/1 164/12/1
f 165/14/1 166/15/1 167/9/1 168/12/1
f 169/14/1 170/15/1 171/9/1 172/12/1
f 173/1/1 174/2/1 175/3/1 176/4/1
f 177/2/1 178/5/1 179/6/1 180/3/1
f 181/23/1 182/16/1 183/19/1 184/24/1
f 185/1/1 186/2/1 187/3/1 188/4/1
f 189/2/1 190/5/1 191/6/1 192/3/1
f 193/16/1 194/17/1 195/18/1 196/19/1
f 197/17/1 198/20/1 199/21/1 200/18/1
f 201/9/1 202/10/1 203/2/1 204/1/1
f 205/10/1 206/11/1 207/5/1 208/2/1
f 209/25/1 210/8/1 211/16/1 212/23/1
f 213/11/1 214/26/1 215/27/1 216/5/1
f 217/26/1 218/28/1 219/29/1 220/27/1
f 221/12/1 222/9/1 223/1/1 224/13/1
f 225/9/1 226/10/1 227/2/1 228/1/1
f 229/10/1 230/11/1 231/5/1 232/2/1
f 233/8/1 234/7/1 235/17/1 236/16/1
f 237/7/1 238/22/1 239/20/1 240/17/1
f 241/4/1 242/3/1 243/7/1 244/8/1
f 245/14/1 246/15/1 247/9/1 248/12/1
f 249/16/1 250/17/1 251/18/1 252/19/1
f 253/17/1 254/20/1 255/21/1 256/18/1
f 257/15/1 258/32/1 259/10/1 260/9/1
f 261/4/1 262/3/1 263/7/1 264/8/1
f 265/8/1 266/7/1 267/17/1 268/16/1
f 269/7/1 270/22/1 271/20/1 272/17/1
f 273/12/1 274/9/1 275/1/1 276/13/1
f 277/14/1 278/15/1 279/9/1 280/12/1
f 281/11/1 282/26/1 283/27/1 284/5/1
f 285/26/1 286/28/1 287/29/1 288/27/1
f 289/12/1 290/9/1 291/1/1 292/13/1
f 293/14/1 294/15/1 295/9/1 296/12/1
f 297/23/1 298/16/1 299/19/1 300/24/1
f 301/4/1 302/3/1 303/7/1 304/8/1
f 305/11/1 306/26/1 307/27/1 308/5/1
f 309/26/1 310/28/1 311/29/1 312/27/1
f 313/25/1 314/8/1 315/16/1 316/23/1
f 317/1/1 318/2/1 319/3/1 320/4/1
f 321/2/1 322/5/1 323/6/1 324/3/1
f 325/9/1 326/10/1 327/2/1 328/1/1
f 329/10/1 330/11/1 331/5/1 332/2/1
f 333/1/1 334/2/1 335/3/1 336/4/1
f 337/2/1 338/5/1 339/6/1 340/3/1
f 341/23/1 342/16/1 343/19/1 344/24/1
f 345/9/1 346/10/1 347/2/1 348/1/1
f 349/10/1 350/11/1 351/5/1 352/2/1
f 353/25/1 354/8/1 355/16/1 356/23/1
f 357/23/1 358/16/1 359/19/1 360/24/1
f 361/3/1 362/6/1 363/22/1 364/7/1
f 365/5/1 366/27/1 367/30/1 368/6/1
f 369/27/1 370/29/1 371/31/1 372/30/1
f 373/25/1 374/8/1 375/16/1 376/23/1
f 377/12/1 378/9/1 379/1/1 380/13/1
f 381/14/1 382/15/1 383/9/1 384/12/1
f 385/3/1 386/6/1 387/22/1 388/7/1
f 389/16/1 390/17/1 391/18/1 392/19/1
f 393/17/1 394/20/1 395/21/1 396/18/1
f 397/1/1 398/2/1 399/3/1 400/4/1
f 401/2/1 402/5/1 403/6/1 404/3/1
f 405/8/1 406/7/1 407/17/1 408/16/1
f 409/7/1 410/22/1 411/20/1 412/17/1
f 413/11/1 414/26/1 415/27/1 416/5/1
f 417/26/1 418/28/1 419/29/1 420/27/1
f 421/23/1 422/16/1 423/19/1 424/24/1
f 425/9/1 426/10/1 427/2/1 428/1/1
f 429/10/1 430/11/1 431/5/1 432/2/1
f 433/25/1 434/8/1 435/16/1 436/23/1
f 437/12/1 438/9/1 439/1/1 440/13/1
f 441/14/1 442/15/1 443/9/1 444/12/1
f 445/23/1 446/16/1 447/19/1 448/24/1
f 449/12/1 450/9/1 451/1/1 452/13/1
f 453/25/1 454/8/1 455/16/1 456/23/1
f 457/14/1 458/15/1 459/9/1 460/12/1
f 461/1/1 462/2/1 463/3/1 464/4/1
f 465/2/1 466/5/1 467/6/1 468/3/1
f 469/4/1 470/3/1 471/7/1 472/8/1
f 473/3/1 474/6/1 475/22/1 476/7/1
f 477/9/1 478/10/1 479/2/1 480/1/1
f 481/10/1 482/11/1 483/5/1 484/2/1
f 485/15/1 486/32/1 487/10/1 488/9/1
f 489/1/1 490/2/1 491/3/1 492/4/1
f 493/2/1 494/5/1 495/6/1 496/3/1
f 497/23/1 498/16/1 499/19/1 500/24/1
f 501/9/1 502/10/1 503/2/1 504/1/1
f 505/10/1 506/11/1 507/5/1 508/2/1
f 509/25/1 510/8/1 511/16/1 512/23/1
f 513/3/1 514/6/1 515/22/1 516/7/1

